<?xml version="1.0" standalone="no"?>
<!DOCTYPE svg PUBLIC "-//W3C//DTD SVG 20010904//EN"
 "http://www.w3.org/TR/2001/REC-SVG-20010904/DTD/svg10.dtd">
<svg version="1.0" xmlns="http://www.w3.org/2000/svg"
 width="1710.000000pt" height="1710.000000pt" viewBox="0 0 1710.000000 1710.000000"
 preserveAspectRatio="xMidYMid meet">
<metadata>
Created by potrace 1.11, written by Peter Selinger 2001-2013
</metadata>
<g transform="translate(0.000000,1710.000000) scale(0.100000,-0.100000)"
fill="#000000" stroke="none">
<path d="M7767 17033 c-36 -95 -128 -346 -131 -358 -2 -5 -6 -17 -9 -25 -4 -8
-12 -33 -20 -55 -8 -22 -80 -222 -161 -445 -81 -223 -170 -465 -196 -539 -27
-74 -53 -137 -57 -141 -4 -4 -75 -26 -158 -49 -246 -70 -692 -218 -802 -267
-17 -8 -36 -14 -42 -14 -6 0 -19 -4 -29 -9 -20 -11 -57 -26 -169 -70 l-81 -33
-94 65 c-51 35 -127 88 -168 116 -41 29 -112 78 -158 109 -46 31 -113 78 -150
104 -37 26 -74 52 -82 58 -8 6 -80 56 -160 111 -245 170 -522 354 -582 388
l-56 32 -99 -67 c-97 -66 -411 -295 -528 -384 -33 -25 -116 -88 -185 -140
-294 -222 -394 -310 -386 -340 3 -8 21 -76 41 -150 21 -74 53 -189 72 -255 19
-66 38 -133 43 -150 4 -16 22 -79 40 -140 17 -60 35 -123 40 -140 4 -16 24
-88 45 -160 83 -289 165 -602 165 -628 0 -24 -61 -110 -237 -332 -8 -10 -84
-116 -136 -190 -57 -81 -295 -442 -331 -503 -21 -35 -48 -69 -60 -77 -18 -12
-81 -16 -309 -20 -284 -5 -475 -9 -802 -20 -93 -3 -231 -8 -305 -10 -214 -7
-345 -16 -351 -23 -10 -12 -78 -224 -168 -522 -27 -91 -98 -325 -159 -520 -60
-195 -112 -367 -115 -381 -5 -21 0 -32 26 -56 35 -32 342 -279 476 -383 115
-89 203 -159 221 -173 8 -7 44 -35 80 -62 36 -28 67 -52 70 -55 3 -3 111 -88
240 -190 129 -101 237 -187 240 -191 3 -4 2 -47 -1 -96 -8 -125 -3 -1086 6
-1159 l8 -61 -89 -69 c-49 -38 -186 -145 -304 -237 -118 -93 -228 -179 -245
-192 -94 -73 -413 -323 -552 -432 -89 -71 -167 -137 -173 -148 -13 -24 -23 10
251 -860 45 -143 99 -316 120 -384 38 -124 63 -186 77 -195 10 -6 403 -25 852
-41 689 -25 874 -36 911 -56 9 -5 32 -32 50 -61 19 -29 37 -54 41 -56 5 -2 8
-8 8 -13 0 -13 288 -448 310 -469 3 -3 30 -39 60 -80 30 -41 57 -77 60 -80 12
-11 158 -210 198 -270 37 -55 42 -70 37 -98 -5 -30 -162 -579 -245 -862 -119
-405 -200 -709 -200 -752 0 -20 12 -36 48 -65 26 -21 49 -40 52 -43 3 -3 59
-45 125 -95 66 -49 122 -93 125 -96 11 -15 234 -159 244 -159 7 0 24 12 38 27
24 26 284 372 318 423 8 13 24 35 36 49 11 14 63 85 114 156 52 72 96 132 100
135 3 3 72 97 152 210 81 113 292 406 470 652 178 246 330 456 338 468 8 12
24 34 35 48 40 53 155 236 155 247 0 21 -60 77 -220 208 -170 138 -449 420
-636 642 -33 38 -63 75 -69 81 -5 6 -21 26 -35 44 -55 73 -80 106 -92 120 -7
8 -17 22 -23 31 -5 9 -33 50 -61 90 -49 71 -204 317 -204 324 0 2 -20 37 -44
78 -72 122 -276 551 -276 581 0 6 -7 25 -16 41 -25 49 -130 369 -168 515 -40
151 -87 373 -101 470 -2 14 -8 54 -14 90 -5 36 -13 94 -16 130 -4 36 -9 74
-11 85 -11 60 -19 262 -19 510 0 322 7 429 41 680 21 153 18 134 61 365 12 70
70 290 105 405 210 692 537 1281 1016 1835 97 112 404 414 512 504 52 43 107
88 121 101 33 29 197 152 279 209 607 425 1390 726 2165 831 22 3 54 7 70 10
28 4 159 14 270 21 86 5 497 4 570 -1 39 -3 102 -7 140 -10 131 -9 224 -21
395 -51 329 -58 722 -163 945 -253 230 -93 306 -127 445 -196 227 -113 535
-294 606 -357 11 -10 23 -18 27 -18 12 0 238 -175 332 -256 148 -129 437 -409
550 -534 353 -390 701 -973 906 -1515 144 -383 252 -823 284 -1165 4 -36 8
-80 10 -98 25 -213 25 -856 0 -1032 -2 -19 -7 -57 -10 -85 -3 -27 -8 -68 -12
-90 -3 -22 -7 -47 -8 -55 -15 -130 -90 -461 -150 -665 -85 -289 -233 -653
-362 -895 -25 -47 -50 -92 -54 -100 -4 -8 -43 -73 -85 -145 -130 -218 -260
-406 -413 -595 -111 -137 -563 -589 -716 -716 -159 -132 -178 -151 -171 -178
6 -25 100 -167 207 -316 42 -58 138 -190 213 -295 76 -104 147 -203 159 -219
12 -16 40 -54 62 -86 22 -32 69 -98 104 -147 36 -48 231 -317 435 -598 204
-280 374 -514 378 -520 5 -5 41 -53 80 -105 67 -88 104 -130 116 -130 17 0
392 274 525 385 38 31 71 63 74 71 6 16 -24 142 -84 349 -19 66 -36 127 -38
135 -2 8 -25 87 -50 175 -26 88 -51 174 -55 190 -5 17 -19 68 -33 115 -121
417 -197 686 -197 699 0 9 49 77 108 153 230 293 422 561 542 759 99 163 109
175 159 189 20 5 101 11 181 15 80 3 188 8 240 10 52 2 167 7 255 10 88 3 212
8 275 10 113 4 305 12 505 20 172 8 249 16 270 29 19 13 31 45 166 466 29 92
71 229 75 245 2 6 37 120 79 255 90 292 122 396 130 430 8 33 -42 81 -275 263
-96 76 -211 165 -255 200 -44 34 -149 117 -234 182 -325 254 -561 446 -576
469 -14 21 -15 43 -8 148 10 157 9 832 -2 1005 -7 114 -6 135 8 157 9 13 85
79 169 146 84 66 160 126 168 133 8 7 98 77 200 157 285 222 658 521 737 588
l71 61 -18 68 c-28 107 -67 241 -106 369 -20 66 -37 126 -39 134 -11 46 -273
881 -279 887 -14 14 -586 35 -1621 58 -71 2 -137 4 -146 4 -9 1 -56 68 -114
164 -164 271 -334 517 -507 733 -69 86 -141 188 -151 216 -3 9 3 45 13 80 10
34 77 266 149 513 71 248 146 506 166 575 20 69 38 132 40 141 2 9 10 36 18
60 29 88 70 267 64 282 -5 13 -89 82 -282 233 -11 8 -94 71 -185 139 -91 68
-169 128 -175 132 -21 17 -373 272 -451 326 -45 32 -89 57 -98 57 -9 0 -36
-10 -59 -21 -40 -21 -356 -228 -537 -354 -47 -32 -112 -77 -145 -100 -33 -23
-207 -143 -387 -268 -285 -198 -330 -226 -350 -218 -13 5 -46 19 -75 30 -72
29 -97 38 -106 40 -4 0 -21 7 -37 16 -72 37 -539 197 -835 285 -93 28 -179 57
-192 65 -12 8 -26 29 -32 47 -5 18 -33 94 -61 168 -56 148 -158 426 -330 905
-61 171 -115 319 -120 330 -4 11 -21 54 -37 95 l-28 75 -761 3 -761 2 -26 -67z"/>
<path d="M8188 13115 c-2 -1 -43 -5 -93 -8 -235 -16 -696 -136 -1027 -268
-128 -51 -394 -174 -408 -189 -4 -4 -28 -17 -115 -64 -11 -6 -22 -14 -25 -17
-3 -3 -12 -9 -20 -13 -77 -36 -374 -248 -475 -337 -160 -142 -439 -423 -575
-579 -218 -251 -446 -629 -598 -995 -46 -110 -135 -358 -147 -409 -3 -12 -20
-80 -40 -153 -19 -72 -37 -143 -40 -157 -28 -135 -44 -223 -51 -276 -4 -30 -8
-66 -10 -80 -12 -85 -19 -290 -19 -520 0 -299 7 -427 32 -560 3 -19 7 -44 8
-55 1 -11 7 -45 14 -76 6 -30 14 -69 17 -85 3 -16 7 -37 10 -46 3 -10 7 -28 9
-40 11 -61 90 -332 131 -450 75 -215 185 -455 294 -643 16 -27 36 -63 46 -80
89 -157 274 -404 517 -690 218 -257 390 -555 485 -840 37 -109 79 -272 88
-340 3 -27 8 -52 9 -56 9 -14 18 -233 20 -504 4 -493 7 -585 19 -586 6 -1 43
-3 81 -5 76 -3 3830 -4 4270 -1 l269 2 2 80 c1 44 5 217 9 385 7 353 12 505
20 575 2 28 7 73 10 101 23 219 160 581 311 821 81 130 297 422 335 453 17 15
225 279 286 365 289 407 490 851 618 1367 8 31 17 72 20 90 4 18 11 53 16 78
50 217 64 392 63 785 0 299 -8 460 -28 570 -3 17 -8 48 -12 70 -7 52 -63 311
-74 350 -5 17 -23 80 -41 140 -79 282 -204 582 -342 825 -50 87 -172 283 -194
310 -6 8 -40 53 -74 100 -122 167 -220 279 -427 490 -391 397 -809 679 -1320
889 -303 124 -715 232 -1027 267 -42 5 -822 13 -827 9z m627 -698 c11 -2 49
-8 85 -12 573 -62 1121 -270 1585 -600 276 -197 467 -385 718 -707 90 -114
248 -378 333 -556 103 -215 225 -569 258 -747 9 -52 44 -258 49 -295 28 -182
29 -573 3 -795 -9 -78 -17 -132 -21 -155 -2 -14 -9 -54 -15 -90 -29 -166 -78
-345 -146 -535 -77 -212 -193 -443 -330 -653 -65 -100 -209 -300 -255 -357
-335 -406 -447 -569 -587 -856 -93 -191 -189 -452 -227 -615 -2 -10 -15 -66
-29 -124 -13 -58 -27 -123 -30 -145 -3 -22 -8 -51 -11 -65 -2 -14 -7 -47 -10
-75 -4 -27 -8 -61 -10 -75 -4 -28 -18 -223 -18 -258 l-1 -24 -1570 5 c-1377 4
-1619 7 -1634 21 -4 4 -10 54 -17 141 -9 112 -15 164 -31 265 -8 52 -17 111
-20 130 -12 78 -77 323 -120 450 -132 388 -334 738 -628 1090 -39 46 -76 91
-83 100 -6 8 -34 42 -62 76 -287 348 -539 842 -643 1259 -5 22 -11 47 -14 55
-16 61 -64 317 -69 370 -3 36 -8 72 -10 80 -25 103 -26 591 -1 725 2 11 7 49
11 85 18 168 85 450 153 651 41 118 48 138 88 227 13 29 24 55 24 59 0 9 140
286 153 303 7 8 21 31 31 50 43 80 259 387 296 420 3 3 34 38 70 79 200 230
449 440 724 611 124 76 378 203 511 254 55 21 109 42 120 47 41 17 255 79 373
108 135 33 339 66 472 77 47 3 87 8 88 9 6 5 424 -3 447 -8z"/>
<path d="M6923 3412 l-613 -2 -1 -73 c0 -39 -2 -186 -5 -324 l-4 -253 2268 0
2268 0 1 329 0 329 -1651 -1 c-908 -1 -1927 -3 -2263 -5z"/>
<path d="M6879 2225 c-3 0 -7 -148 -10 -395 l-4 -255 1703 0 1703 -1 -3 318
c-2 175 -8 321 -12 325 -6 6 -742 8 -3377 8z"/>
<path d="M7507 1022 c-13 -3 -16 -10 -11 -30 11 -50 175 -535 240 -712 82
-222 99 -259 127 -270 23 -9 857 -5 1177 6 102 4 196 7 209 7 17 1 28 10 39
36 14 34 149 415 234 661 22 63 53 151 69 196 16 44 29 86 29 92 0 14 71 13
-1210 16 -487 1 -893 0 -903 -2z"/>
</g>
</svg>
